REM DIRINDEX 1\2\4,1\2\5,1\2\6,1\3\7,1\3\8
REM DIRNAME folder01,folder02,folder03,folder04,folder05,folder06,folder07,folder08
TITLE ""
FILE "026_Lesson 22_Output_Stage.mp3" MP3
  TRACK 01 AUDIO
    TITLE "0:"
    INDEX 01 00:00:00
  TRACK 02 AUDIO
    TITLE "6:cjc128_1577"
    INDEX 01 00:00:11
  TRACK 03 AUDIO
    TITLE "0:"
    INDEX 01 00:03:41
  TRACK 04 AUDIO
    TITLE "6:cjc128_1578"
    INDEX 01 00:04:11
  TRACK 05 AUDIO
    TITLE "0:"
    INDEX 01 00:06:10
  TRACK 06 AUDIO
    TITLE "4:cjc128_1579"
    INDEX 01 00:07:00
  TRACK 07 AUDIO
    TITLE "0:"
    INDEX 01 00:10:35
  TRACK 08 AUDIO
    TITLE "5:cjc128_1580"
    INDEX 01 00:14:07
  TRACK 09 AUDIO
    TITLE "0:"
    INDEX 01 00:17:08
  TRACK 10 AUDIO
    TITLE "6:cjc128_1581"
    INDEX 01 00:17:72
  TRACK 11 AUDIO
    TITLE "0:"
    INDEX 01 00:19:71
  TRACK 12 AUDIO
    TITLE "4:cjc128_1582"
    INDEX 01 00:20:59
  TRACK 13 AUDIO
    TITLE "0:"
    INDEX 01 00:24:20
  TRACK 14 AUDIO
    TITLE "5:cjc128_1583"
    INDEX 01 00:28:70
  TRACK 15 AUDIO
    TITLE "0:"
    INDEX 01 00:32:74
  TRACK 16 AUDIO
    TITLE "6:cjc128_1584"
    INDEX 01 00:33:58
  TRACK 17 AUDIO
    TITLE "0:"
    INDEX 01 00:35:35
  TRACK 18 AUDIO
    TITLE "4:cjc128_1585"
    INDEX 01 00:36:27
  TRACK 19 AUDIO
    TITLE "0:"
    INDEX 01 00:40:68
  TRACK 20 AUDIO
    TITLE "5:cjc128_1586"
    INDEX 01 00:45:26
  TRACK 21 AUDIO
    TITLE "0:"
    INDEX 01 00:48:67
  TRACK 22 AUDIO
    TITLE "6:cjc128_1587"
    INDEX 01 00:49:55
  TRACK 23 AUDIO
    TITLE "0:"
    INDEX 01 00:51:56
  TRACK 24 AUDIO
    TITLE "4:cjc128_1588"
    INDEX 01 00:52:47
  TRACK 25 AUDIO
    TITLE "0:"
    INDEX 01 00:55:61
  TRACK 26 AUDIO
    TITLE "5:cjc128_1589"
    INDEX 01 01:00:02
  TRACK 27 AUDIO
    TITLE "0:"
    INDEX 01 01:03:31
  TRACK 28 AUDIO
    TITLE "6:cjc128_1590"
    INDEX 01 01:04:11
  TRACK 29 AUDIO
    TITLE "0:"
    INDEX 01 01:06:26
  TRACK 30 AUDIO
    TITLE "4:cjc128_1591"
    INDEX 01 01:07:17
  TRACK 31 AUDIO
    TITLE "0:"
    INDEX 01 01:10:35
  TRACK 32 AUDIO
    TITLE "5:cjc128_1592"
    INDEX 01 01:14:19
  TRACK 33 AUDIO
    TITLE "0:"
    INDEX 01 01:17:39
  TRACK 34 AUDIO
    TITLE "6:cjc128_1593"
    INDEX 01 01:18:23
  TRACK 35 AUDIO
    TITLE "0:"
    INDEX 01 01:20:22
  TRACK 36 AUDIO
    TITLE "4:cjc128_1594"
    INDEX 01 01:21:16
  TRACK 37 AUDIO
    TITLE "0:"
    INDEX 01 01:24:00
  TRACK 38 AUDIO
    TITLE "5:cjc128_1595"
    INDEX 01 01:27:61
  TRACK 39 AUDIO
    TITLE "0:"
    INDEX 01 01:30:62
  TRACK 40 AUDIO
    TITLE "6:cjc128_1596"
    INDEX 01 01:31:49
  TRACK 41 AUDIO
    TITLE "0:"
    INDEX 01 01:33:60
  TRACK 42 AUDIO
    TITLE "4:cjc128_1597"
    INDEX 01 01:34:54
  TRACK 43 AUDIO
    TITLE "0:"
    INDEX 01 01:38:18
  TRACK 44 AUDIO
    TITLE "5:cjc128_1598"
    INDEX 01 01:41:59
  TRACK 45 AUDIO
    TITLE "0:"
    INDEX 01 01:44:52
  TRACK 46 AUDIO
    TITLE "6:cjc128_1599"
    INDEX 01 01:45:45
  TRACK 47 AUDIO
    TITLE "0:"
    INDEX 01 01:47:58
  TRACK 48 AUDIO
    TITLE "4:cjc128_1600"
    INDEX 01 01:48:34
  TRACK 49 AUDIO
    TITLE "0:"
    INDEX 01 01:51:05
  TRACK 50 AUDIO
    TITLE "5:cjc128_1601"
    INDEX 01 01:53:72
  TRACK 51 AUDIO
    TITLE "0:"
    INDEX 01 01:56:10
  TRACK 52 AUDIO
    TITLE "6:cjc128_1602"
    INDEX 01 01:57:00
  TRACK 53 AUDIO
    TITLE "0:"
    INDEX 01 01:59:08
  TRACK 54 AUDIO
    TITLE "4:cjc128_1603"
    INDEX 01 01:59:69
  TRACK 55 AUDIO
    TITLE "0:"
    INDEX 01 02:02:58
  TRACK 56 AUDIO
    TITLE "5:cjc128_1604"
    INDEX 01 02:06:61
  TRACK 57 AUDIO
    TITLE "0:"
    INDEX 01 02:10:16
  TRACK 58 AUDIO
    TITLE "6:cjc128_1605"
    INDEX 01 02:11:00
  TRACK 59 AUDIO
    TITLE "0:"
    INDEX 01 02:13:01
  TRACK 60 AUDIO
    TITLE "4:cjc128_1606"
    INDEX 01 02:13:69
  TRACK 61 AUDIO
    TITLE "0:"
    INDEX 01 02:16:68
  TRACK 62 AUDIO
    TITLE "5:cjc128_1607"
    INDEX 01 02:20:36
  TRACK 63 AUDIO
    TITLE "0:"
    INDEX 01 02:23:27
  TRACK 64 AUDIO
    TITLE "6:cjc128_1608"
    INDEX 01 02:24:16
  TRACK 65 AUDIO
    TITLE "0:"
    INDEX 01 02:26:11
  TRACK 66 AUDIO
    TITLE "4:cjc128_1609"
    INDEX 01 02:27:03
  TRACK 67 AUDIO
    TITLE "0:"
    INDEX 01 02:29:47
  TRACK 68 AUDIO
    TITLE "5:cjc128_1610"
    INDEX 01 02:33:07
  TRACK 69 AUDIO
    TITLE "0:"
    INDEX 01 02:35:57
  TRACK 70 AUDIO
    TITLE "6:cjc128_1611"
    INDEX 01 02:36:47
  TRACK 71 AUDIO
    TITLE "0:"
    INDEX 01 02:38:50
  TRACK 72 AUDIO
    TITLE "4:cjc128_1612"
    INDEX 01 02:39:33
  TRACK 73 AUDIO
    TITLE "0:"
    INDEX 01 02:41:73
  TRACK 74 AUDIO
    TITLE "5:cjc128_1613"
    INDEX 01 02:45:26
  TRACK 75 AUDIO
    TITLE "0:"
    INDEX 01 02:48:05
  TRACK 76 AUDIO
    TITLE "6:cjc128_1614"
    INDEX 01 02:48:68
  TRACK 77 AUDIO
    TITLE "0:"
    INDEX 01 02:50:43
  TRACK 78 AUDIO
    TITLE "4:cjc128_1615"
    INDEX 01 02:51:39
  TRACK 79 AUDIO
    TITLE "0:"
    INDEX 01 02:54:29
  TRACK 80 AUDIO
    TITLE "5:cjc128_1616"
    INDEX 01 02:58:05
  TRACK 81 AUDIO
    TITLE "0:"
    INDEX 01 03:01:08
  TRACK 82 AUDIO
    TITLE "6:cjc128_1617"
    INDEX 01 03:01:70
  TRACK 83 AUDIO
    TITLE "0:"
    INDEX 01 03:03:63
  TRACK 84 AUDIO
    TITLE "4:cjc128_1618"
    INDEX 01 03:04:51
  TRACK 85 AUDIO
    TITLE "0:"
    INDEX 01 03:07:55
  TRACK 86 AUDIO
    TITLE "5:cjc128_1619"
    INDEX 01 03:11:08
  TRACK 87 AUDIO
    TITLE "0:"
    INDEX 01 03:13:42
  TRACK 88 AUDIO
    TITLE "6:cjc128_1620"
    INDEX 01 03:14:30
  TRACK 89 AUDIO
    TITLE "0:"
    INDEX 01 03:16:25
  TRACK 90 AUDIO
    TITLE "4:cjc128_1621"
    INDEX 01 03:17:20
  TRACK 91 AUDIO
    TITLE "0:"
    INDEX 01 03:19:70
  TRACK 92 AUDIO
    TITLE "5:cjc128_1622"
    INDEX 01 03:23:11
  TRACK 93 AUDIO
    TITLE "0:"
    INDEX 01 03:25:59
  TRACK 94 AUDIO
    TITLE "6:cjc128_1623"
    INDEX 01 03:26:47
  TRACK 95 AUDIO
    TITLE "0:"
    INDEX 01 03:28:40
  TRACK 96 AUDIO
    TITLE "4:cjc128_1624"
    INDEX 01 03:29:39
  TRACK 97 AUDIO
    TITLE "0:"
    INDEX 01 03:32:08
  TRACK 98 AUDIO
    TITLE "5:cjc128_1625"
    INDEX 01 03:35:04
  TRACK 99 AUDIO
    TITLE "0:"
    INDEX 01 03:37:35
  TRACK 100 AUDIO
    TITLE "6:cjc128_1626"
    INDEX 01 03:38:20
  TRACK 101 AUDIO
    TITLE "0:"
    INDEX 01 03:40:21
  TRACK 102 AUDIO
    TITLE "4:cjc128_1627"
    INDEX 01 03:41:13
  TRACK 103 AUDIO
    TITLE "0:"
    INDEX 01 03:44:01
  TRACK 104 AUDIO
    TITLE "5:cjc128_1628"
    INDEX 01 03:47:68
  TRACK 105 AUDIO
    TITLE "0:"
    INDEX 01 03:50:71
  TRACK 106 AUDIO
    TITLE "6:cjc128_1629"
    INDEX 01 03:51:56
  TRACK 107 AUDIO
    TITLE "0:"
    INDEX 01 03:53:63
  TRACK 108 AUDIO
    TITLE "4:cjc128_1630"
    INDEX 01 03:54:47
  TRACK 109 AUDIO
    TITLE "0:"
    INDEX 01 03:57:65
  TRACK 110 AUDIO
    TITLE "5:cjc128_1631"
    INDEX 01 04:00:73
  TRACK 111 AUDIO
    TITLE "0:"
    INDEX 01 04:03:38
  TRACK 112 AUDIO
    TITLE "6:cjc128_1632"
    INDEX 01 04:04:22
  TRACK 113 AUDIO
    TITLE "0:"
    INDEX 01 04:06:23
  TRACK 114 AUDIO
    TITLE "4:cjc128_1633"
    INDEX 01 04:07:06
  TRACK 115 AUDIO
    TITLE "0:"
    INDEX 01 04:09:66
  TRACK 116 AUDIO
    TITLE "5:cjc128_1634"
    INDEX 01 04:13:36
  TRACK 117 AUDIO
    TITLE "0:"
    INDEX 01 04:16:05
  TRACK 118 AUDIO
    TITLE "6:cjc128_1635"
    INDEX 01 04:17:03
  TRACK 119 AUDIO
    TITLE "0:"
    INDEX 01 04:19:02
  TRACK 120 AUDIO
    TITLE "4:cjc128_1636"
    INDEX 01 04:19:66
  TRACK 121 AUDIO
    TITLE "0:"
    INDEX 01 04:22:73
  TRACK 122 AUDIO
    TITLE "5:cjc128_1637"
    INDEX 01 04:26:27
  TRACK 123 AUDIO
    TITLE "0:"
    INDEX 01 04:28:61
  TRACK 124 AUDIO
    TITLE "6:cjc128_1638"
    INDEX 01 04:29:49
  TRACK 125 AUDIO
    TITLE "0:"
    INDEX 01 04:31:42
  TRACK 126 AUDIO
    TITLE "4:cjc128_1639"
    INDEX 01 04:32:30
  TRACK 127 AUDIO
    TITLE "0:"
    INDEX 01 04:35:50
  TRACK 128 AUDIO
    TITLE "5:cjc128_1640"
    INDEX 01 04:39:06
  TRACK 129 AUDIO
    TITLE "0:"
    INDEX 01 04:41:66
